<svg xmlns="http://www.w3.org/2000/svg" width="800" height="500" viewBox="0 0 800 500">
  <rect width="800" height="500" fill="#f5f5f5"/>
  <text x="400" y="40" text-anchor="middle" font-size="24" font-weight="bold" fill="#333">Terminology Publication Flow</text>
  <text x="400" y="65" text-anchor="middle" font-size="14" fill="#666">Source: images-source/terminology-flow.mmd</text>
  
  <!-- Source Systems -->
  <text x="100" y="100" text-anchor="middle" font-size="14" font-weight="bold" fill="#01579b">Source Systems</text>
  
  <rect x="20" y="120" width="160" height="40" fill="#e1f5fe" stroke="#0288d1" stroke-width="2" rx="5"/>
  <text x="100" y="145" text-anchor="middle" font-size="12" fill="#333">NHFR</text>
  
  <rect x="20" y="170" width="160" height="40" fill="#e1f5fe" stroke="#0288d1" stroke-width="2" rx="5"/>
  <text x="100" y="195" text-anchor="middle" font-size="12" fill="#333">PSA (PSGC/PSOC)</text>
  
  <rect x="20" y="220" width="160" height="40" fill="#e1f5fe" stroke="#0288d1" stroke-width="2" rx="5"/>
  <text x="100" y="245" text-anchor="middle" font-size="12" fill="#333">DOH</text>
  
  <rect x="20" y="270" width="160" height="40" fill="#e1f5fe" stroke="#0288d1" stroke-width="2" rx="5"/>
  <text x="100" y="295" text-anchor="middle" font-size="12" fill="#333">FDA</text>
  
  <!-- PH Core Terminology -->
  <text x="320" y="100" text-anchor="middle" font-size="14" font-weight="bold" fill="#1b5e20">PH Core Terminology</text>
  
  <rect x="240" y="120" width="160" height="50" fill="#c8e6c9" stroke="#388e3c" stroke-width="2" rx="5"/>
  <text x="320" y="145" text-anchor="middle" font-size="14" font-weight="bold" fill="#1b5e20">CodeSystem</text>
  <text x="320" y="162" text-anchor="middle" font-size="10" fill="#333">Complete codes</text>
  
  <rect x="240" y="185" width="160" height="50" fill="#fff9c4" stroke="#f9a825" stroke-width="2" rx="5"/>
  <text x="320" y="210" text-anchor="middle" font-size="14" font-weight="bold" fill="#f57f17">ValueSet</text>
  <text x="320" y="227" text-anchor="middle" font-size="10" fill="#333">Usable subsets</text>
  
  <rect x="240" y="250" width="160" height="50" fill="#ffcc80" stroke="#ef6c00" stroke-width="2" rx="5"/>
  <text x="320" y="275" text-anchor="middle" font-size="14" font-weight="bold" fill="#e65100">NamingSystem</text>
  <text x="320" y="292" text-anchor="middle" font-size="10" fill="#333">Identifier systems</text>
  
  <!-- Bindings -->
  <text x="540" y="100" text-anchor="middle" font-size="14" font-weight="bold" fill="#c62828">Profile Bindings</text>
  
  <rect x="460" y="120" width="160" height="40" fill="#ffcdd2" stroke="#d32f2f" stroke-width="2" rx="5"/>
  <text x="540" y="138" text-anchor="middle" font-size="11" font-weight="bold" fill="#b71c1c">Required</text>
  <text x="540" y="152" text-anchor="middle" font-size="10" fill="#333">SHALL use from ValueSet</text>
  
  <rect x="460" y="170" width="160" height="40" fill="#ffe0b2" stroke="#f57c00" stroke-width="2" rx="5"/>
  <text x="540" y="188" text-anchor="middle" font-size="11" font-weight="bold" fill="#e65100">Preferred</text>
  <text x="540" y="202" text-anchor="middle" font-size="10" fill="#333">SHOULD use from ValueSet</text>
  
  <rect x="460" y="220" width="160" height="40" fill="#f5f5f5" stroke="#9e9e9e" stroke-width="2" rx="5"/>
  <text x="540" y="238" text-anchor="middle" font-size="11" font-weight="bold" fill="#616161">Example</text>
  <text x="540" y="252" text-anchor="middle" font-size="10" fill="#333">MAY use for guidance</text>
  
  <!-- Implementation -->
  <text x="700" y="100" text-anchor="middle" font-size="14" font-weight="bold" fill="#4a148c">Implementation</text>
  
  <rect x="660" y="120" width="120" height="40" fill="#e1bee7" stroke="#7b1fa2" stroke-width="2" rx="5"/>
  <text x="720" y="138" text-anchor="middle" font-size="11" font-weight="bold" fill="#4a148c">PH Core Server</text>
  <text x="720" y="152" text-anchor="middle" font-size="9" fill="#333">validates terms</text>
  
  <rect x="660" y="170" width="120" height="40" fill="#e1bee7" stroke="#7b1fa2" stroke-width="2" rx="5"/>
  <text x="720" y="188" text-anchor="middle" font-size="11" font-weight="bold" fill="#4a148c">PH Core Client</text>
  <text x="720" y="202" text-anchor="middle" font-size="9" fill="#333">uses bound codes</text>
  
  <rect x="660" y="240" width="120" height="60" fill="#f3e5f5" stroke="#7b1fa2" stroke-width="2" rx="5"/>
  <text x="720" y="265" text-anchor="middle" font-size="11" font-weight="bold" fill="#4a148c">Terminology</text>
  <text x="720" y="282" text-anchor="middle" font-size="11" font-weight="bold" fill="#4a148c">Validation</text>
  <text x="720" y="295" text-anchor="middle" font-size="9" fill="#666">@ tx.fhirlab.net</text>
  
  <!-- Arrows -->
  <line x1="180" y1="140" x2="240" y2="145" stroke="#666" stroke-width="2" marker-end="url(#arrow)"/>
  <text x="210" y="135" font-size="9" fill="#666">facility codes</text>
  
  <line x1="180" y1="190" x2="240" y2="150" stroke="#666" stroke-width="2" marker-end="url(#arrow)"/>
  <text x="195" y="175" font-size="9" fill="#666">classifications</text>
  
  <line x1="180" y1="240" x2="240" y2="155" stroke="#666" stroke-width="2" marker-end="url(#arrow)"/>
  <text x="195" y="225" font-size="9" fill="#666">eHealth codes</text>
  
  <line x1="180" y1="290" x2="240" y2="160" stroke="#666" stroke-width="2" marker-end="url(#arrow)"/>
  <text x="195" y="275" font-size="9" fill="#666">drug codes</text>
  
  <line x1="400" y1="145" x2="460" y2="140" stroke="#666" stroke-width="2" marker-end="url(#arrow)"/>
  <line x1="400" y1="145" x2="460" y2="190" stroke="#666" stroke-width="2" marker-end="url(#arrow)"/>
  <line x1="400" y1="210" x2="460" y2="140" stroke="#666" stroke-width="2" marker-end="url(#arrow)"/>
  <line x1="400" y1="210" x2="460" y2="190" stroke="#666" stroke-width="2" marker-end="url(#arrow)"/>
  <line x1="400" y1="210" x2="460" y2="240" stroke="#666" stroke-width="2" marker-end="url(#arrow)"/>
  
  <line x1="620" y1="140" x2="660" y2="140" stroke="#666" stroke-width="2" marker-end="url(#arrow)"/>
  <line x1="620" y1="190" x2="660" y2="190" stroke="#666" stroke-width="2" marker-end="url(#arrow)"/>
  <line x1="620" y1="240" x2="660" y2="200" stroke="#666" stroke-width="2" marker-end="url(#arrow)"/>
  
  <line x1="720" y1="160" x2="720" y2="240" stroke="#666" stroke-width="2" marker-end="url(#arrow)"/>
  <line x1="720" y1="210" x2="720" y2="240" stroke="#666" stroke-width="2" marker-end="url(#arrow)"/>
  
  <defs>
    <marker id="arrow" markerWidth="10" markerHeight="10" refX="9" refY="3" orient="auto">
      <polygon points="0 0, 10 3, 0 6" fill="#666"/>
    </marker>
  </defs>
  
  <text x="400" y="450" text-anchor="middle" font-size="12" fill="#999">Placeholder - Generate from images-source/terminology-flow.mmd</text>
</svg>
